<?xml version="1.0" encoding="UTF-8" standalone="no"?>
<!-- Created with Inkscape (http://www.inkscape.org/) -->

<svg
   width="48"
   height="48"
   viewBox="0 0 12.7 12.7"
   version="1.1"
   id="svg1"
   xml:space="preserve"
   xmlns="http://www.w3.org/2000/svg"
   xmlns:svg="http://www.w3.org/2000/svg"><defs
     id="defs1" /><g
     id="layer2"><circle
       style="fill:#009688;fill-opacity:1;stroke-width:0.396875;stroke-linecap:round;stroke-linejoin:round"
       id="path2"
       cx="6.3500004"
       cy="6.3500004"
       r="6.3500004" /></g><g
     id="layer1"><path
       d="m 3.8805557,9.8777783 q -0.2910418,0 -0.4982988,-0.207256 Q 3.175,9.4632655 3.175,9.1722227 V 4.2333331 q 0,-0.2910417 0.2072569,-0.4982986 0.207257,-0.207257 0.4982988,-0.207257 H 5.3534031 Q 5.4504165,3.2190969 5.7326393,3.0206593 6.0148616,2.8222217 6.3500005,2.8222217 q 0.3527779,0 0.6305904,0.1984376 0.2778126,0.1984376 0.3748264,0.5071182 h 1.4640291 q 0.2910408,0 0.4982976,0.207257 Q 9.525,3.9422914 9.525,4.2333332 v 4.9388896 q 0,0.2910427 -0.207256,0.4982995 -0.2072568,0.207256 -0.4982976,0.207256 z m 0,-0.7055556 H 8.8194464 V 4.2333331 H 8.1138896 V 5.2916666 H 4.5861112 V 4.2333331 H 3.8805557 Z M 6.3500005,4.2333331 q 0.1499306,0 0.2513542,-0.1014241 0.101424,-0.101424 0.101424,-0.2513541 0,-0.1499306 -0.101424,-0.2513541 -0.101424,-0.101424 -0.2513542,-0.101424 -0.1499305,0 -0.2513542,0.101424 -0.101424,0.101424 -0.101424,0.2513541 0,0.1499305 0.101424,0.2513541 0.101424,0.1014241 0.2513542,0.1014241 z"
       id="path1-3"
       style="fill:#ffffff;fill-opacity:1;stroke-width:0.00661457" /><g
       id="g3"
       transform="translate(1.779701,2.0345738)"
       style="stroke-width:1"><circle
         style="fill:#009688;fill-opacity:1;stroke-width:0.396875;stroke-linecap:round;stroke-linejoin:round"
         id="path3"
         cx="6.3499999"
         cy="6.3499999"
         r="2.6458333" /><path
         d="m 5.291667,8.2549958 q -0.1746249,0 -0.298979,-0.124354 Q 4.8683339,8.0062878 4.8683339,7.8316627 V 5.5033302 q 0,-0.1746249 0.1243541,-0.298979 0.1243541,-0.124354 0.298979,-0.124354 H 5.7150001 V 4.5508308 q 0,-0.1322917 0.092604,-0.2248958 0.092604,-0.092604 0.2248958,-0.092604 h 0.6349996 q 0.1322916,0 0.2248957,0.092604 0.092604,0.092604 0.092604,0.2248958 V 5.0799972 H 7.408332 q 0.174625,0 0.298979,0.1243541 0.124355,0.124354 0.124355,0.2989789 v 2.3283325 q 0,0.1746251 -0.124355,0.2989791 -0.124354,0.124354 -0.298979,0.124354 0,0.08996 -0.06086,0.150813 -0.060856,0.06086 -0.1508121,0.06086 -0.089958,0 -0.1508124,-0.06086 -0.060853,-0.06086 -0.060853,-0.150813 H 5.7149989 q 0,0.08996 -0.060854,0.150813 -0.060854,0.06086 -0.1508124,0.06086 -0.089958,0 -0.1508125,-0.06086 -0.060854,-0.06085 -0.060854,-0.150813 z m 0,-0.423333 H 7.408332 V 5.5033302 H 5.291667 Z M 5.5033336,7.6199958 H 5.8208334 V 5.7149969 H 5.5033336 Z m 0.6879163,0 H 6.5087497 V 5.7149969 H 6.1912499 Z m 0.6879162,0 H 7.196666 V 5.7149969 H 6.8791661 Z M 6.3499998,6.6674964 Z M 6.0325,5.0799972 H 6.6674996 V 4.5508308 H 6.0325 Z"
         id="path1-2"
         style="fill:#ffffff;fill-opacity:1;stroke-width:0.00661458" /></g></g></svg>
